<svg id="Layer_1" data-name="Layer 1" xmlns="http://www.w3.org/2000/svg" viewBox="0 0 539.94 193.15"><defs><style>.cls-1,.cls-2{fill:none;stroke-miterlimit:10;stroke-width:5px;}.cls-1{stroke:#fff;}.cls-2{stroke:#da2128;}</style></defs><path class="cls-1" d="M161.33,157.1h28.18q27.28,0,36.9,2.5T241,167.83a26,26,0,0,1,6.26,12.74q1.24,7,1.25,27.58v50.68q0,19.49-1.83,26.06a19.69,19.69,0,0,1-6.39,10.28,26.72,26.72,0,0,1-11.28,5.19q-6.7,1.47-20.22,1.48H161.32V157.1Zm37.74,32.19v79.45q8,0,9.89-3.26t1.85-17.75V207.26q0-9.84-.62-12.61a6,6,0,0,0-2.83-4.07Q205.15,189.29,199.07,189.29Z" transform="translate(-158.82 -151.39)"/><path class="cls-1" d="M297,157.1v130q0,21.72-.45,27.93c-.3,4.15-1.67,14.75-4.11,18.08a18.7,18.7,0,0,1-9.87,6.93q-6.21,1.92-18.71,1.92H245V309.7c2.26.18,3.89.27,4.9.27a9.45,9.45,0,0,0,6.32-2,7.38,7.38,0,0,0,2.67-4.83c.23-1.9.36-5.6.36-11.08v-135Z" transform="translate(-158.82 -151.39)"/><path class="cls-1" d="M595.61,210.33v-6.27q0-17.82-3.31-27.19T578.09,160.7q-10.9-6.81-27.43-6.81-16.8,0-27.39,7.83T510.44,179q-2.24,9.39-2.23,30.15v43q0,14.94,1.07,22.41a36.21,36.21,0,0,0,5.35,14.27,34,34,0,0,0,12.52,11.41,35.72,35.72,0,0,0,17.7,4.61,27.12,27.12,0,0,0,13.77-3.35c.48-.27.92-.62,1.38-.93v41.37h35.61V224h-44V250.5h7.3v1.2q0,10.08-1.44,13.56a5.38,5.38,0,0,1-5.45,3.48,4.74,4.74,0,0,1-4.88-3.09q-1.23-3.09-1.22-12.83V205.73q0-11.08,1.23-13.77t4.65-2.68c2.63,0,4.3,1.05,5,3.13s1,7.28,1,15.57v2.34h37.73Z" transform="translate(-158.82 -151.39)"/><path class="cls-1" d="M696.26,241.77q0,21.84-1,30.92a34.58,34.58,0,0,1-21.05,28.14,53.2,53.2,0,0,1-21.45,4,54.55,54.55,0,0,1-20.87-3.8,34.82,34.82,0,0,1-21.58-28q-1.06-8.94-1.07-31.32V217q0-21.82,1-30.91a34.63,34.63,0,0,1,21-28.14,53.23,53.23,0,0,1,21.45-4,54.59,54.59,0,0,1,20.87,3.8,34.82,34.82,0,0,1,21.58,28q1.06,9,1.07,31.32ZM658.52,205q0-10.1-1.1-12.92a4.36,4.36,0,0,0-4.51-2.82,5,5,0,0,0-4.43,2.28Q647,193.84,647,205v45.21q0,12.61,1,15.56t4.69,3a4.54,4.54,0,0,0,4.82-3.4q1-3.39,1-16.18Z" transform="translate(-158.82 -151.39)"/><polygon class="cls-1" points="305.95 5.71 305.95 70.88 284.77 5.71 243.21 5.71 239.76 43.19 255.18 37.97 250.4 87.01 263.22 82.04 253.07 150.44 284.95 150.44 284.95 84.65 304.53 150.44 337.46 150.44 337.46 5.71 305.95 5.71"/><path class="cls-1" d="M403,249.36l-12.56,4.78,2.11-49.63-17.18,5.67L376,157.1H322.27L303,301.82h38.94l2.27-26h13.58l2,26h43.05Zm-59.26.84q1.57-19.29,7.26-60.92,2.86,36.24,5.73,60.92Z" transform="translate(-158.82 -151.39)"/><path class="cls-1" d="M315,312h31.95v7.35H324.53v5h20.35v6.95H324.53V342H315V312Z" transform="translate(-158.82 -151.39)"/><path class="cls-1" d="M376.08,312h9.54V342h-9.54Z" transform="translate(-158.82 -151.39)"/><path class="cls-1" d="M421.59,312h9.51v22h23.25V342H421.59Z" transform="translate(-158.82 -151.39)"/><path class="cls-1" d="M480,312h14.65l9.49,18.3L514.35,312h13.92V342h-9.2V319.1L507.67,342h-7.06L489.22,319.1V342H480V312Z" transform="translate(-158.82 -151.39)"/><polygon class="cls-2" points="244.07 150.44 244.17 97.97 231.61 102.75 233.72 53.12 216.54 58.79 217.19 5.71 243.21 5.71 239.76 43.19 255.18 37.97 250.39 87.01 263.21 82.04 253.07 150.44 244.07 150.44"/></svg>