<?xml version="1.0" encoding="utf-8"?>
<!-- Generator: Adobe Illustrator 25.0.0, SVG Export Plug-In . SVG Version: 6.00 Build 0)  -->
<svg version="1.1" id="Layer_1" xmlns="http://www.w3.org/2000/svg" xmlns:xlink="http://www.w3.org/1999/xlink" x="0px" y="0px"
	 viewBox="0 0 841.89 595.28" style="enable-background:new 0 0 841.89 595.28;" xml:space="preserve">
<style type="text/css">
	.st0{fill:#FFFF; 
	
	}
	.st1{fill:#DA2128;}


</style>
<g>
	<path class="st0" d="M161.33,157.1h28.18c18.19,0,30.49,0.83,36.9,2.5c6.41,1.67,11.29,4.41,14.63,8.23
		c3.34,3.81,5.43,8.06,6.26,12.74c0.83,4.68,1.25,13.87,1.25,27.58v50.68c0,12.99-0.61,21.68-1.83,26.06
		c-1.23,4.38-3.36,7.81-6.39,10.28c-3.04,2.47-6.8,4.2-11.28,5.19c-4.47,0.98-11.21,1.48-20.22,1.48h-47.51V157.1z M199.07,189.29
		v79.45c5.36,0,8.65-1.09,9.89-3.26c1.24-2.17,1.85-8.09,1.85-17.75v-40.47c0-6.56-0.21-10.76-0.62-12.61
		c-0.41-1.85-1.36-3.21-2.83-4.07C205.89,189.72,203.13,189.29,199.07,189.29z"/>
	<path class="st0" d="M297,157.1v129.97c0,14.48-0.15,23.79-0.45,27.93c-0.3,4.15-1.67,14.75-4.11,18.08
		c-2.44,3.34-5.73,5.65-9.87,6.93c-4.14,1.28-10.37,1.92-18.71,1.92h-18.85v-32.23c2.26,0.18,3.89,0.27,4.9,0.27
		c2.67,0,4.78-0.65,6.32-1.96c1.54-1.31,2.43-2.92,2.67-4.83c0.23-1.9,0.36-5.6,0.36-11.08V157.1H297z"/>
	<path class="st0" d="M595.61,210.33v-6.27c0-11.88-1.11-20.94-3.31-27.19c-2.21-6.24-6.94-11.63-14.21-16.17
		c-7.27-4.54-16.41-6.81-27.43-6.81c-11.2,0-20.33,2.61-27.39,7.83c-7.06,5.22-11.34,10.96-12.83,17.23
		c-1.49,6.26-2.23,16.32-2.23,30.15v43.04c0,9.96,0.35,17.43,1.07,22.41c0.71,4.98,2.5,9.74,5.35,14.27
		c2.85,4.53,7.03,8.34,12.52,11.41c5.5,3.07,11.39,4.61,17.7,4.61c5.29,0,9.88-1.11,13.77-3.35c0.48-0.27,0.92-0.62,1.38-0.93v41.37
		h35.61V224.04h-43.97v26.46h7.3v1.2c0,6.72-0.48,11.24-1.44,13.56c-0.96,2.32-2.78,3.48-5.45,3.48c-2.44,0-4.07-1.03-4.88-3.09
		c-0.82-2.06-1.22-6.33-1.22-12.83v-47.09c0-7.39,0.41-11.98,1.23-13.77c0.82-1.79,2.37-2.68,4.65-2.68c2.63,0,4.3,1.05,5,3.13
		c0.7,2.09,1.05,7.28,1.05,15.57v2.34H595.61z"/>
	<path class="st0" d="M696.26,241.77c0,14.56-0.35,24.86-1.03,30.92c-0.68,6.06-2.83,11.59-6.43,16.6
		c-3.61,5.01-8.48,8.86-14.62,11.54c-6.13,2.68-13.29,4.02-21.45,4.02c-7.75,0-14.7-1.27-20.87-3.8
		c-6.17-2.54-11.13-6.34-14.88-11.41c-3.76-5.07-5.99-10.59-6.7-16.55c-0.71-5.96-1.07-16.4-1.07-31.32v-24.79
		c0-14.55,0.34-24.86,1.03-30.91c0.68-6.05,2.83-11.59,6.44-16.6c3.6-5.01,8.48-8.86,14.61-11.54c6.14-2.68,13.29-4.03,21.45-4.03
		c7.74,0,14.7,1.27,20.87,3.8c6.17,2.54,11.12,6.34,14.88,11.41c3.75,5.07,5.99,10.59,6.7,16.55c0.71,5.97,1.07,16.4,1.07,31.32
		V241.77z M658.52,205.02c0-6.73-0.37-11.04-1.1-12.92c-0.73-1.88-2.24-2.82-4.51-2.82c-1.93,0-3.4,0.76-4.43,2.28
		c-1.02,1.52-1.53,6-1.53,13.45v45.21c0,8.41,0.33,13.59,1.01,15.56c0.67,1.97,2.23,2.95,4.69,2.95c2.51,0,4.12-1.13,4.82-3.4
		c0.7-2.26,1.05-7.66,1.05-16.18V205.02z"/>
	<polygon class="st0" points="464.77,157.1 464.77,222.27 443.59,157.1 402.03,157.1 398.58,194.58 414,189.36 409.22,238.4 
		422.04,233.43 411.89,301.83 443.77,301.83 443.77,236.04 463.35,301.83 496.28,301.83 496.28,157.1 	"/>
	<path class="st0" d="M402.99,249.36l-12.56,4.78l2.11-49.63l-17.18,5.67l0.64-53.08h-53.73l-19.27,144.72h38.94l2.27-25.99h13.58
		l2.04,25.99h43.05L402.99,249.36z M343.73,250.2c1.05-12.86,3.48-33.17,7.26-60.92c1.91,24.16,3.82,44.47,5.73,60.92H343.73z"/>
	<path class="st0" d="M314.97,311.96h31.95v7.35h-22.39v5.04h20.35v6.95h-20.35v10.72h-9.56V311.96z"/>
	<path class="st0" d="M376.08,311.96h9.54v30.07h-9.54V311.96z"/>
	<path class="st0" d="M421.59,311.96h9.51v21.99h23.25v8.09h-32.76V311.96z"/>
	<path class="st0" d="M480.03,311.96h14.65l9.49,18.3l10.18-18.3h13.92v30.07h-9.2V319.1l-11.4,22.94h-7.06l-11.39-22.94v22.94h-9.2
		V311.96z"/>
	<polygon class="st1" points="402.89,301.83 402.99,249.36 390.43,254.14 392.54,204.51 375.36,210.18 376.01,157.1 402.03,157.1 
		398.58,194.58 414,189.36 409.21,238.4 422.03,233.43 411.89,301.83 	"/>
</g>
</svg>
